<svg xmlns="http://www.w3.org/2000/svg" data-name="Layer 1" viewBox="0 0 512 640" x="0px" y="0px"><title>1 copy 71</title><path d="M179.76,32H79.41a48.06,48.06,0,0,0-48,48V180.35a48.06,48.06,0,0,0,48,48H179.76a48.06,48.06,0,0,0,48-48V80A48.05,48.05,0,0,0,179.76,32Zm32,148.35a32,32,0,0,1-32,32H79.41a32,32,0,0,1-32-32V80a32,32,0,0,1,32-32H179.76a32,32,0,0,1,32,32Z"/><path d="M179.76,283.66H79.41a48.06,48.06,0,0,0-48,48V432a48.06,48.06,0,0,0,48,48H179.76a48.05,48.05,0,0,0,48-48V331.66A48.05,48.05,0,0,0,179.76,283.66Zm32,148.34a32,32,0,0,1-32,32H79.41a32,32,0,0,1-32-32V331.66a32,32,0,0,1,32-32H179.76a32,32,0,0,1,32,32Z"/><path d="M432.59,32H332.24a48.05,48.05,0,0,0-48,48V180.35a48.06,48.06,0,0,0,48,48H432.59a48.06,48.06,0,0,0,48-48V80A48.06,48.06,0,0,0,432.59,32Zm32,148.35a32,32,0,0,1-32,32H332.24a32,32,0,0,1-32-32V80a32,32,0,0,1,32-32H432.59a32,32,0,0,1,32,32Z"/><path d="M432.59,283.66H332.24a48.05,48.05,0,0,0-48,48V432a48.05,48.05,0,0,0,48,48H432.59a48.06,48.06,0,0,0,48-48V331.66A48.06,48.06,0,0,0,432.59,283.66Zm32,148.34a32,32,0,0,1-32,32H332.24a32,32,0,0,1-32-32V331.66a32,32,0,0,1,32-32H432.59a32,32,0,0,1,32,32Z"/><text x="0" y="527" fill="#000000" font-size="5px" font-weight="bold" font-family="'Helvetica Neue', Helvetica, Arial-Unicode, Arial, Sans-serif">Created by Brown_Iconic</text><text x="0" y="532" fill="#000000" font-size="5px" font-weight="bold" font-family="'Helvetica Neue', Helvetica, Arial-Unicode, Arial, Sans-serif">from the Noun Project</text></svg>