<svg xmlns="http://www.w3.org/2000/svg" viewBox="0 0 32 40" x="0px" y="0px"><title>Shopping bag,</title><g data-name="Layer 32"><path d="M26,8.9A1,1,0,0,0,25,8H22A6,6,0,0,0,10,8H7a1,1,0,0,0-1,.9l-1.8,18A2.75,2.75,0,0,0,4.9,29a3.09,3.09,0,0,0,2.29,1H24.81a3.09,3.09,0,0,0,2.29-1,2.75,2.75,0,0,0,.7-2.09ZM16,4a4,4,0,0,1,4,4H12A4,4,0,0,1,16,4Zm9.61,23.67a1.07,1.07,0,0,1-.8.33H7.19a1.07,1.07,0,0,1-.8-.33.71.71,0,0,1-.2-.55L7.9,10H10v2a1,1,0,0,0,2,0V10h8v2a1,1,0,0,0,2,0V10h2.1l1.71,17.12A.71.71,0,0,1,25.61,27.67Z"/></g><text x="0" y="47" fill="#000000" font-size="5px" font-weight="bold" font-family="'Helvetica Neue', Helvetica, Arial-Unicode, Arial, Sans-serif">Created by Caesar Rizky Kurniawan</text><text x="0" y="52" fill="#000000" font-size="5px" font-weight="bold" font-family="'Helvetica Neue', Helvetica, Arial-Unicode, Arial, Sans-serif">from the Noun Project</text></svg>